<?xml version="1.0" encoding="UTF-8" standalone="no"?>
<!DOCTYPE svg PUBLIC "-//W3C//DTD SVG 1.1//EN" "http://www.w3.org/Graphics/SVG/1.1/DTD/svg11.dtd">
<svg width="100%" height="100%" viewBox="0 0 28 33" version="1.1" xmlns="http://www.w3.org/2000/svg" xmlns:xlink="http://www.w3.org/1999/xlink" xml:space="preserve" xmlns:serif="http://www.serif.com/" style="fill-rule:evenodd;clip-rule:evenodd;stroke-linejoin:round;stroke-miterlimit:2;">
    <g transform="matrix(1,0,0,1,-24,-20)">
        <g>
            <path d="M39.706,52L39.706,42.922C39.706,36.596 44.844,31.434 51.2,31.434L51.2,40.513C51.2,46.839 46.035,52 39.706,52Z" style="fill:url(#_Linear1);fill-rule:nonzero;"/>
            <path d="M36.792,45.939L36.792,32.784C36.792,25.717 31.072,20 24,20L24,33.155C24,40.222 29.721,45.939 36.792,45.939Z" style="fill:url(#_Linear2);fill-rule:nonzero;"/>
            <path d="M48.285,26.476C48.84,24.143 47.398,21.803 45.064,21.248C42.73,20.693 40.388,22.134 39.833,24.467C39.278,26.799 40.72,29.139 43.054,29.694C45.388,30.249 47.73,28.808 48.285,26.476Z" style="fill:url(#_Linear3);fill-rule:nonzero;"/>
        </g>
    </g>
    <defs>
        <linearGradient id="_Linear1" x1="0" y1="0" x2="1" y2="0" gradientUnits="userSpaceOnUse" gradientTransform="matrix(1.25929e-15,20.5658,-20.5658,1.25929e-15,45.4527,31.4343)"><stop offset="0" style="stop-color:rgb(68,187,254);stop-opacity:1"/><stop offset="1" style="stop-color:rgb(30,120,254);stop-opacity:1"/></linearGradient>
        <linearGradient id="_Linear2" x1="0" y1="0" x2="1" y2="0" gradientUnits="userSpaceOnUse" gradientTransform="matrix(1.58829e-15,25.9388,-25.9388,1.58829e-15,30.3961,20)"><stop offset="0" style="stop-color:rgb(68,187,254);stop-opacity:1"/><stop offset="1" style="stop-color:rgb(30,120,254);stop-opacity:1"/></linearGradient>
        <linearGradient id="_Linear3" x1="0" y1="0" x2="1" y2="0" gradientUnits="userSpaceOnUse" gradientTransform="matrix(8.451,2.0113,-2.0113,8.451,39.8332,24.4666)"><stop offset="0" style="stop-color:rgb(255,207,83);stop-opacity:1"/><stop offset="1" style="stop-color:rgb(255,153,0);stop-opacity:1"/></linearGradient>
    </defs>
</svg>
